<?xml version="1.0" encoding="UTF-8" standalone="no"?>
<svg width="48px" height="48px" viewBox="0 0 48 48" version="1.1" xmlns="http://www.w3.org/2000/svg" xmlns:xlink="http://www.w3.org/1999/xlink">
    <!-- Generator: Sketch 3.7.2 (28276) - http://www.bohemiancoding.com/sketch -->
    <title>math_keypad_icon_dismiss</title>
    <desc>Created with Sketch.</desc>
    <defs></defs>
    <g id="Page-1" stroke="none" stroke-width="1" fill="none" fill-rule="evenodd">
        <g id="math_keypad_icon_dismiss">
            <rect id="bounds" fill-opacity="0" fill="#FF0088" x="0" y="0" width="48" height="48"></rect>
            <path d="M19.2928932,32.7071068 L23.2928932,36.7071068 C23.6834175,37.0976311 24.3165825,37.0976311 24.7071068,36.7071068 L28.7071068,32.7071068 C29.0976311,32.3165825 29.0976311,31.6834175 28.7071068,31.2928932 C28.3165825,30.9023689 27.6834175,30.9023689 27.2928932,31.2928932 L23.2928932,35.2928932 L24.7071068,35.2928932 L20.7071068,31.2928932 C20.3165825,30.9023689 19.6834175,30.9023689 19.2928932,31.2928932 C18.9023689,31.6834175 18.9023689,32.3165825 19.2928932,32.7071068 L19.2928932,32.7071068 Z" id="chevron" fill="#78C008"></path>
            <g id="keyboard" transform="translate(14.000000, 12.000000)">
                <rect id="box" fill="#78C008" x="0" y="0" width="20" height="14" rx="1"></rect>
                <g id="grid" fill="#FFFFFF">
                    <rect id="vr" x="6" y="0" width="1" height="14"></rect>
                    <rect id="vr" x="13" y="0" width="1" height="14"></rect>
                    <rect id="hr" x="0" y="4" width="20" height="1"></rect>
                    <rect id="hr" x="0" y="9" width="20" height="1"></rect>
                </g>
            </g>
        </g>
    </g>
</svg>