<?xml version="1.0" encoding="UTF-8" standalone="no"?>
<svg width="48px" height="48px" viewBox="0 0 48 48" version="1.1" xmlns="http://www.w3.org/2000/svg" xmlns:xlink="http://www.w3.org/1999/xlink">
    <!-- Generator: Sketch 3.7.2 (28276) - http://www.bohemiancoding.com/sketch -->
    <title>math_keypad_icon_exponent_multi</title>
    <desc>Created with Sketch.</desc>
    <defs></defs>
    <g id="Page-1" stroke="none" stroke-width="1" fill="none" fill-rule="evenodd">
        <g id="math_keypad_icon_exponent_multi">
            <g id="icon">
                <rect id="bounds" fill-opacity="0" fill="#FF0088" x="0" y="0" width="48" height="48"></rect>
                <path d="M29,23 C29,23.5488921 28.5497709,24 27.9953976,24 L36.0046024,24 C35.4442557,24 35,23.556769 35,23 C35,22.4511079 35.4502291,22 36.0046024,22 L27.9953976,22 C28.5557443,22 29,22.443231 29,23 L29,23 Z M27,23 L27,23 C27,22.4438648 27.4456547,22 27.9953976,22 L36.0046024,22 C36.5443356,22 37,22.4477153 37,23 C37,23.5561352 36.5543453,24 36.0046024,24 L27.9953976,24 C27.4556644,24 27,23.5522847 27,23 L27,23 Z" id="exponent" fill="#E3E5E6"></path>
                <path d="M14,21.0008717 L14,21.0008717 L14,34.9991283 C14,34.4478049 13.5504004,34 13.0024733,34 L22.9975267,34 C22.444907,34 22,34.4420827 22,34.9991283 L22,21.0008717 C22,21.5521951 22.4495996,22 22.9975267,22 L13.0024733,22 C13.555093,22 14,21.5579173 14,21.0008717 L14,21.0008717 Z M12,21.0008717 C12,20.4481055 12.455761,20 13.0024733,20 L22.9975267,20 C23.5511774,20 24,20.4446309 24,21.0008717 L24,34.9991283 C24,35.5518945 23.544239,36 22.9975267,36 L13.0024733,36 C12.4488226,36 12,35.5553691 12,34.9991283 L12,21.0008717 L12,21.0008717 Z" id="base" fill="#3B3E40"></path>
                <path d="M34.67,21 L34.67,19.5 L32.23,19.5 C33.89,18.34 34.62,17.47 34.62,16.45 C34.62,15.11 33.49,14.23 31.92,14.23 C30.99,14.23 29.93,14.56 29.22,15.34 L30.17,16.48 C30.65,16.03 31.21,15.75 31.95,15.75 C32.44,15.75 32.87,15.99 32.87,16.45 C32.87,17.11 32.33,17.57 29.44,19.66 L29.44,21 L34.67,21 Z" id="2" fill="#3B3E40"></path>
            </g>
        </g>
    </g>
</svg>