<?xml version="1.0" encoding="UTF-8" standalone="no"?>
<svg width="48px" height="48px" viewBox="0 0 48 48" version="1.1" xmlns="http://www.w3.org/2000/svg" xmlns:xlink="http://www.w3.org/1999/xlink">
    <!-- Generator: Sketch 3.7.2 (28276) - http://www.bohemiancoding.com/sketch -->
    <title>math_keypad_icon_multiplication_multi</title>
    <desc>Created with Sketch.</desc>
    <defs></defs>
    <g id="Page-1" stroke="none" stroke-width="1" fill="none" fill-rule="evenodd">
        <g id="math_keypad_icon_multiplication_multi">
            <g>
                <rect id="bounds" fill-opacity="0" fill="#FF0088" x="0" y="0" width="48" height="48"></rect>
                <g id="parentheses" transform="translate(6.000000, 12.000000)">
                    <rect id="bounds" fill-opacity="0" fill="#FF0088" x="0" y="0" width="24" height="24"></rect>
                    <path d="M6.16794971,1.4452998 C1.94401676,7.7811992 1.94401677,16.2188008 6.1679497,22.5547002 C6.47430216,23.0142289 7.09517151,23.1384028 7.55470019,22.8320503 C8.01422888,22.5256978 8.13840275,21.9048285 7.8320503,21.4452998 C4.05598324,15.7811992 4.05598323,8.21880077 7.83205029,2.5547002 C8.13840275,2.09517151 8.01422889,1.47430217 7.5547002,1.16794971 C7.09517151,0.861597247 6.47430217,0.985771114 6.16794971,1.4452998 L6.16794971,1.4452998 Z" id="arc" fill="#3B3E40"></path>
                    <path d="M16.1679497,2.5547002 C19.9440168,8.21880077 19.9440168,15.7811992 16.1679497,21.4452998 C15.8615972,21.9048285 15.9857711,22.5256978 16.4452998,22.8320503 C16.9048285,23.1384028 17.5256978,23.0142289 17.8320503,22.5547002 C22.0559832,16.2188008 22.0559832,7.7811992 17.8320503,1.4452998 C17.5256978,0.985771114 16.9048285,0.861597247 16.4452998,1.16794971 C15.9857711,1.47430217 15.8615972,2.09517151 16.1679497,2.5547002 L16.1679497,2.5547002 Z" id="arc" fill="#3B3E40"></path>
                </g>
                <g id="dot" transform="translate(34.000000, 12.000000)">
                    <rect id="bounds" fill-opacity="0" fill="#FF0088" x="0" y="0" width="8" height="8"></rect>
                    <circle fill="#BABEC2" cx="4" cy="4" r="2"></circle>
                </g>
                <g id="cross" transform="translate(34.000000, 28.000000)">
                    <rect id="bounds" fill-opacity="0" fill="#FF0088" x="0" y="0" width="8" height="8"></rect>
                    <path d="M0.292893219,1.70710678 L6.29289322,7.70710678 C6.68341751,8.09763107 7.31658249,8.09763107 7.70710678,7.70710678 C8.09763107,7.31658249 8.09763107,6.68341751 7.70710678,6.29289322 L1.70710678,0.292893219 C1.31658249,-0.0976310729 0.683417511,-0.0976310729 0.292893219,0.292893219 C-0.0976310729,0.683417511 -0.0976310729,1.31658249 0.292893219,1.70710678 L0.292893219,1.70710678 Z" id="line" fill="#BABEC2"></path>
                    <path d="M6.29289322,0.292893219 L0.292893219,6.29289322 C-0.0976310729,6.68341751 -0.0976310729,7.31658249 0.292893219,7.70710678 C0.683417511,8.09763107 1.31658249,8.09763107 1.70710678,7.70710678 L7.70710678,1.70710678 C8.09763107,1.31658249 8.09763107,0.683417511 7.70710678,0.292893219 C7.31658249,-0.0976310729 6.68341751,-0.0976310729 6.29289322,0.292893219 L6.29289322,0.292893219 Z" id="line" fill="#BABEC2"></path>
                </g>
            </g>
        </g>
    </g>
</svg>