<?xml version="1.0" encoding="UTF-8" standalone="no"?>
<svg width="48px" height="48px" viewBox="0 0 48 48" version="1.1" xmlns="http://www.w3.org/2000/svg" xmlns:xlink="http://www.w3.org/1999/xlink">
    <!-- Generator: Sketch 3.7.2 (28276) - http://www.bohemiancoding.com/sketch -->
    <title>math_keypad_icon_root_multi</title>
    <desc>Created with Sketch.</desc>
    <defs></defs>
    <g id="Page-1" stroke="none" stroke-width="1" fill="none" fill-rule="evenodd">
        <g id="math_keypad_icon_root_multi">
            <g id="icon">
                <rect id="bounds" fill-opacity="0" fill="#FF0088" x="0" y="0" width="48" height="48"></rect>
                <path d="M14,23 C14,23.5488921 13.5497709,24 12.9953976,24 L21.0046024,24 C20.4442557,24 20,23.556769 20,23 C20,22.4511079 20.4502291,22 21.0046024,22 L12.9953976,22 C13.5557443,22 14,22.443231 14,23 L14,23 Z M12,23 L12,23 C12,22.4438648 12.4456547,22 12.9953976,22 L21.0046024,22 C21.5443356,22 22,22.4477153 22,23 C22,23.5561352 21.5543453,24 21.0046024,24 L12.9953976,24 C12.4556644,24 12,23.5522847 12,23 L12,23 Z" id="exponent" fill="#E3E5E6"></path>
                <path d="M19.67,21 L19.67,19.5 L17.23,19.5 C18.89,18.34 19.62,17.47 19.62,16.45 C19.62,15.11 18.49,14.23 16.92,14.23 C15.99,14.23 14.93,14.56 14.22,15.34 L15.17,16.48 C15.65,16.03 16.21,15.75 16.95,15.75 C17.44,15.75 17.87,15.99 17.87,16.45 C17.87,17.11 17.33,17.57 14.44,19.66 L14.44,21 L19.67,21 Z" id="2" fill="#3B3E40"></path>
                <path d="M13.1520017,27.5299989 L18.1520017,35.5299989 C18.5658936,36.192226 19.5451848,36.1456984 19.8944272,35.4472136 L27.8944272,19.4472136 L27,20 L35,20 C35.5522847,20 36,19.5522847 36,19 C36,18.4477153 35.5522847,18 35,18 L27,18 C26.6212279,18 26.2749648,18.2140024 26.1055728,18.5527864 L18.1055728,34.5527864 L19.8479983,34.4700011 L14.8479983,26.4700011 C14.555288,26.0016645 13.9383376,25.8592914 13.4700011,26.1520017 C13.0016645,26.444712 12.8592914,27.0616624 13.1520017,27.5299989 L13.1520017,27.5299989 Z" id="root" fill="#3B3E40"></path>
            </g>
        </g>
    </g>
</svg>