<svg width="32" height="32" viewBox="0 0 32 32" fill="none" xmlns="http://www.w3.org/2000/svg">
<path fill-rule="evenodd" clip-rule="evenodd" d="M29 6H30V7H29V6ZM27 6C27 4.89543 27.8954 4 29 4H30C31.1046 4 32 4.89543 32 6V7C32 8.10457 31.1046 9 30 9H29C27.8954 9 27 8.10457 27 7V6ZM11.1318 6.50386C11.3098 6.19229 11.6411 6 12 6H14C14.5523 6 15 6.44772 15 7C15 7.55228 14.5523 8 14 8H12.5803L8.86824 14.4961C8.68527 14.8163 8.34091 15.0098 7.97225 14.9996C7.6036 14.9894 7.2705 14.7771 7.10557 14.4472L5.10557 10.4472C4.85858 9.95324 5.05881 9.35256 5.55279 9.10557C6.04676 8.85858 6.64744 9.05881 6.89443 9.55279L8.0588 11.8815L11.1318 6.50386ZM7.70676 16.2925C8.09748 16.6829 8.09779 17.316 7.70745 17.7068C7.28543 18.1292 6.84383 18.7303 6.51157 19.3658C6.17039 20.0184 6 20.601 6 21C6 21.3789 6.17235 21.9897 6.51638 22.6649C6.85315 23.3259 7.28488 23.9121 7.66786 24.2557C8.07892 24.6246 8.11314 25.2568 7.74429 25.6679C7.37544 26.0789 6.7432 26.1131 6.33214 25.7443C5.7161 25.1915 5.14783 24.3844 4.73434 23.5728C4.32813 22.7755 3.99999 21.8345 4 21C4.00001 20.1391 4.3301 19.2217 4.73917 18.4392C5.15715 17.6397 5.71554 16.8708 6.29255 16.2932C6.68288 15.9025 7.31605 15.9022 7.70676 16.2925ZM11.2932 16.2925C11.684 15.9022 12.3171 15.9025 12.7075 16.2932C13.2845 16.8708 13.8428 17.6397 14.2608 18.4392C14.6699 19.2217 15 20.1391 15 21C15 21.8345 14.6719 22.7755 14.2657 23.5728C13.8522 24.3844 13.2839 25.1915 12.6679 25.7443C12.2568 26.1131 11.6246 26.0789 11.2557 25.6679C10.8869 25.2568 10.9211 24.6246 11.3321 24.2557C11.7151 23.9121 12.1469 23.3259 12.4836 22.6649C12.8276 21.9897 13 21.3789 13 21C13 20.601 12.8296 20.0184 12.4884 19.3658C12.1562 18.7303 11.7146 18.1292 11.2925 17.7068C10.9022 17.316 10.9025 16.6829 11.2932 16.2925ZM27.9363 17.6489C28.1302 18.166 27.8682 18.7424 27.3511 18.9363L21.848 21L27.3511 23.0637C27.8682 23.2576 28.1302 23.834 27.9363 24.3511C27.7424 24.8682 27.166 25.1302 26.6489 24.9363L18.6489 21.9363C18.2586 21.79 18 21.4168 18 21C18 20.5832 18.2586 20.21 18.6489 20.0637L26.6489 17.0637C27.166 16.8698 27.7424 17.1318 27.9363 17.6489ZM21 8V13H24V8H21ZM20 6C19.4477 6 19 6.44772 19 7V14C19 14.5523 19.4477 15 20 15H25C25.5523 15 26 14.5523 26 14V7C26 6.44772 25.5523 6 25 6H20Z" fill="#21242C"/>
</svg>
