<?xml version="1.0" encoding="UTF-8" standalone="no"?>
<svg width="48px" height="48px" viewBox="0 0 48 48" version="1.1" xmlns="http://www.w3.org/2000/svg" xmlns:xlink="http://www.w3.org/1999/xlink">
    <!-- Generator: sketchtool 3.7.2 (28276) - http://www.bohemiancoding.com/sketch -->
    <title>6C03EB6B-4037-4E39-98C7-2F7C3BAD772A</title>
    <desc>Created with sketchtool.</desc>
    <defs></defs>
    <g id="Math-Input" stroke="none" stroke-width="1" fill="none" fill-rule="evenodd">
        <g id="[Assets]-Math-Input" transform="translate(-1544.000000, -200.000000)">
            <g id="math_keypad_icon_jump_out_numerator" transform="translate(1544.000000, 200.000000)">
                <rect id="bounds" fill-opacity="0" fill="#FF0088" x="0" y="0" width="48" height="48"></rect>
                <g id="icon" stroke-width="1" transform="translate(12.000000, 12.000000)">
                    <rect id="bounds" fill-opacity="0" fill="#FF0088" x="0" y="0" width="24" height="24"></rect>
                    <polyline id="head" stroke="#78C008" stroke-width="2" stroke-linecap="round" stroke-linejoin="round" points="21 17 18 20 15 17"></polyline>
                    <path d="M18,6 L18,20" id="tail" stroke="#78C008" stroke-width="2" stroke-linecap="round" stroke-linejoin="round"></path>
                    <path d="M4,15.9970301 C4,15.4463856 4.45303631,15 4.99703014,15 L11.0029699,15 C11.5536144,15 12,15.4530363 12,15.9970301 L12,22.0029699 C12,22.5536144 11.5469637,23 11.0029699,23 L4.99703014,23 C4.4463856,23 4,22.5469637 4,22.0029699 L4,15.9970301 Z M6,17 L10,17 L10,21 L6,21 L6,17 Z" id="block" fill="#78C008"></path>
                    <path d="M13,12 L3,12" id="bar" stroke="#888D93" stroke-width="2" stroke-linecap="round" stroke-linejoin="round"></path>
                    <path d="M4,1.99703014 C4,1.4463856 4.45303631,1 4.99703014,1 L11.0029699,1 C11.5536144,1 12,1.45303631 12,1.99703014 L12,8.00296986 C12,8.5536144 11.5469637,9 11.0029699,9 L4.99703014,9 C4.4463856,9 4,8.54696369 4,8.00296986 L4,1.99703014 Z M6,3 L10,3 L10,7 L6,7 L6,3 Z" id="block" fill="#888D93"></path>
                </g>
            </g>
        </g>
    </g>
</svg>