<?xml version="1.0" encoding="UTF-8" standalone="no"?>
<svg width="48px" height="48px" viewBox="0 0 48 48" version="1.1" xmlns="http://www.w3.org/2000/svg" xmlns:xlink="http://www.w3.org/1999/xlink">
    <!-- Generator: sketchtool 3.7.2 (28276) - http://www.bohemiancoding.com/sketch -->
    <title>927EA81E-F7E9-4B13-87D6-DF6931C9208A</title>
    <desc>Created with sketchtool.</desc>
    <defs></defs>
    <g id="Math-Input" stroke="none" stroke-width="1" fill="none" fill-rule="evenodd">
        <g id="[Assets]-Math-Input" transform="translate(-1272.000000, -766.000000)">
            <g id="math_keypad_icon_radical_3" transform="translate(1272.000000, 766.000000)">
                <g id="icon">
                    <rect id="bounds" fill-opacity="0" fill="#FF0088" x="0" y="0" width="48" height="48"></rect>
                    <path d="M17.91,23.12 C19.57,23.12 20.67,22.31 20.67,21.14 C20.67,20.18 19.81,19.63 19.1,19.56 C19.89,19.43 20.56,18.84 20.56,18.06 C20.56,16.96 19.61,16.23 17.91,16.23 C16.68,16.23 15.8,16.68 15.24,17.31 L16.07,18.39 C16.54,17.97 17.12,17.75 17.73,17.75 C18.37,17.75 18.85,17.94 18.85,18.36 C18.85,18.71 18.46,18.88 17.77,18.88 C17.52,18.88 17,18.88 16.87,18.87 L16.87,20.4 C16.97,20.39 17.48,20.39 17.77,20.39 C18.68,20.39 18.96,20.57 18.96,20.95 C18.96,21.32 18.58,21.6 17.84,21.6 C17.26,21.6 16.5,21.37 16.02,20.9 L15.15,22.07 C15.67,22.67 16.63,23.12 17.91,23.12 L17.91,23.12 Z" id="3" fill="#3B3E40"></path>
                    <polyline id="root" stroke="#3B3E40" stroke-width="2" stroke-linecap="round" stroke-linejoin="round" points="14 29 18 35 27 21 34 21"></polyline>
                </g>
            </g>
        </g>
    </g>
</svg>