<?xml version="1.0" encoding="UTF-8" standalone="no"?>
<svg width="48px" height="48px" viewBox="0 0 48 48" version="1.1" xmlns="http://www.w3.org/2000/svg" xmlns:xlink="http://www.w3.org/1999/xlink">
    <!-- Generator: sketchtool 3.7.2 (28276) - http://www.bohemiancoding.com/sketch -->
    <title>846ACD9A-F33D-41CE-9942-55B88C559A56</title>
    <desc>Created with sketchtool.</desc>
    <defs></defs>
    <g id="Math-Input" stroke="none" stroke-width="1" fill="none" fill-rule="evenodd">
        <g id="[Assets]-Math-Input" transform="translate(-1272.000000, -902.000000)">
            <g id="math_keypad_icon_radical_multi" transform="translate(1272.000000, 902.000000)">
                <g id="icon">
                    <rect id="bounds" fill-opacity="0" fill="#FF0088" x="0" y="0" width="48" height="48"></rect>
                    <polyline id="root" stroke="#3B3E40" stroke-width="2" stroke-linecap="round" stroke-linejoin="round" points="14 29 18 35 27 21 34 21"></polyline>
                    <path d="M20.635,23 L20.635,21.5 L18.195,21.5 C19.855,20.34 20.585,19.47 20.585,18.45 C20.585,17.11 19.455,16.23 17.885,16.23 C16.955,16.23 15.895,16.56 15.185,17.34 L16.135,18.48 C16.615,18.03 17.175,17.75 17.915,17.75 C18.405,17.75 18.835,17.99 18.835,18.45 C18.835,19.11 18.295,19.57 15.405,21.66 L15.405,23 L20.635,23 Z" id="2" fill="#3B3E40"></path>
                    <rect id="base" fill="#3B3E40" opacity="0.3" transform="translate(18.000000, 26.000000) scale(1, -1) translate(-18.000000, -26.000000) " x="15" y="25" width="6" height="2" rx="1"></rect>
                </g>
            </g>
        </g>
    </g>
</svg>