<?xml version="1.0" encoding="UTF-8" standalone="no"?>
<svg width="48px" height="48px" viewBox="0 0 48 48" version="1.1" xmlns="http://www.w3.org/2000/svg" xmlns:xlink="http://www.w3.org/1999/xlink">
    <!-- Generator: sketchtool 3.7.2 (28276) - http://www.bohemiancoding.com/sketch -->
    <title>57F7D9A6-7B67-4372-BF8C-785B65093320</title>
    <desc>Created with sketchtool.</desc>
    <defs></defs>
    <g id="Math-Input" stroke="none" stroke-width="1" fill="none" fill-rule="evenodd">
        <g id="[Assets]-Math-Input" transform="translate(-1408.000000, -200.000000)">
            <g id="math_keypad_icon_jump_out" transform="translate(1408.000000, 200.000000)">
                <rect id="bounds" fill-opacity="0" fill="#FF0088" x="0" y="0" width="48" height="48"></rect>
                <g id="icon" stroke-width="1" transform="translate(12.000000, 12.000000)">
                    <rect id="bounds" fill-opacity="0" fill="#FF0088" x="0" y="0" width="24" height="24"></rect>
                    <path d="M0,7.00247329 C0,6.44882258 0.455760956,6 1.00247329,6 L10.9975267,6 C11.5511774,6 12,6.45576096 12,7.00247329 L12,16.9975267 C12,17.5511774 11.544239,18 10.9975267,18 L1.00247329,18 C0.448822582,18 0,17.544239 0,16.9975267 L0,7.00247329 Z M2,8 L10,8 L10,16 L2,16 L2,8 Z" id="block" fill="#888D93"></path>
                    <path d="M18,12 L6,12" id="tail" stroke="#78C008" stroke-width="2" stroke-linecap="round" stroke-linejoin="round"></path>
                    <polyline id="head" stroke="#78C008" stroke-width="2" stroke-linecap="round" stroke-linejoin="round" points="16 9 19 12 16 15"></polyline>
                    <path d="M23,4 L23,20" id="caret" stroke="#78C008" stroke-width="2" stroke-linecap="round" stroke-linejoin="round"></path>
                </g>
            </g>
        </g>
    </g>
</svg>