<?xml version="1.0" encoding="UTF-8" standalone="no"?>
<svg width="48px" height="48px" viewBox="0 0 48 48" version="1.1" xmlns="http://www.w3.org/2000/svg" xmlns:xlink="http://www.w3.org/1999/xlink">
    <!-- Generator: sketchtool 3.7.2 (28276) - http://www.bohemiancoding.com/sketch -->
    <title>57F7D9A6-7B67-4372-BF8C-785B65093320</title>
    <desc>Created with sketchtool.</desc>
    <defs></defs>
    <g id="Math-Input" stroke="none" stroke-width="1" fill="none" fill-rule="evenodd">
        <g id="[Assets]-Math-Input" transform="translate(-1408.000000, -200.000000)">
            <g id="math_keypad_icon_jump_out" transform="translate(1408.000000, 200.000000)">
                <rect id="bounds" fill-opacity="0" fill="#FF0088" x="0" y="0" width="48" height="48"></rect>
                <g id="icon" stroke-width="1" transform="translate(12.000000, 12.000000)">
                    <rect id="bounds" fill-opacity="0" fill="#FF0088" x="0" y="0" width="24" height="24"></rect>
                    <path d="M2,4.99508929 L2,4.99508929 L2,19.0049107 C2,19.0007808 1.99921607,19 2.00276013,19 L10.9972399,19 C11.0020427,19 11,19.002037 11,19.0049107 L11,4.99508929 C11,4.99921924 11.0007839,5 10.9972399,5 L2.00276013,5 C1.99795733,5 2,4.99796296 2,4.99508929 L2,4.99508929 Z M0,4.99508929 C0,3.8932319 0.893542647,3 2.00276013,3 L10.9972399,3 C12.1033337,3 13,3.8926228 13,4.99508929 L13,19.0049107 C13,20.1067681 12.1064574,21 10.9972399,21 L2.00276013,21 C0.896666251,21 0,20.1073772 0,19.0049107 L0,4.99508929 L0,4.99508929 Z" id="box" fill="#888D93"></path>
                    <path d="M18,12 L9,12" id="tail" stroke="#78C008" stroke-width="2" stroke-linecap="round" stroke-linejoin="round"></path>
                    <polyline id="head" stroke="#78C008" stroke-width="2" stroke-linecap="round" stroke-linejoin="round" points="16 9 19 12 16 15"></polyline>
                    <path d="M23,4 L23,20" id="caret" stroke="#78C008" stroke-width="2" stroke-linecap="round" stroke-linejoin="round"></path>
                    <path d="M5,8 L5,16" id="caret" stroke="#78C008" stroke-width="2" stroke-linecap="round" stroke-linejoin="round"></path>
                </g>
            </g>
        </g>
    </g>
</svg>