<?xml version="1.0" encoding="UTF-8" standalone="no"?>
<svg width="48px" height="48px" viewBox="0 0 48 48" version="1.1" xmlns="http://www.w3.org/2000/svg" xmlns:xlink="http://www.w3.org/1999/xlink">
    <!-- Generator: sketchtool 3.7.2 (28276) - http://www.bohemiancoding.com/sketch -->
    <title>5A749E51-8574-4485-95BC-D48B00CAF0B7</title>
    <desc>Created with sketchtool.</desc>
    <defs></defs>
    <g id="Math-Input" stroke="none" stroke-width="1" fill="none" fill-rule="evenodd">
        <g id="[Assets]-Math-Input" transform="translate(-1204.000000, -532.000000)">
            <g id="math_keypad_icon_fraction" transform="translate(1204.000000, 532.000000)">
                <rect id="bounds" fill-opacity="0" fill="#FF0088" x="0" y="0" width="48" height="48"></rect>
                <g id="fraction" stroke-width="1" transform="translate(12.000000, 12.000000)">
                    <rect id="bounds" fill-opacity="0" fill="#FF0088" x="0" y="0" width="24" height="24"></rect>
                    <path d="M8,16.9970301 C8,16.4463856 8.45303631,16 8.99703014,16 L15.0029699,16 C15.5536144,16 16,16.4530363 16,16.9970301 L16,23.0029699 C16,23.5536144 15.5469637,24 15.0029699,24 L8.99703014,24 C8.4463856,24 8,23.5469637 8,23.0029699 L8,16.9970301 Z M10,18 L14,18 L14,22 L10,22 L10,18 Z" id="block" fill="#3B3E40"></path>
                    <rect id="bar" fill="#3B3E40" x="2" y="11" width="20" height="2" rx="1"></rect>
                    <path d="M8,0.997030139 C8,0.446385598 8.45303631,0 8.99703014,0 L15.0029699,0 C15.5536144,0 16,0.453036308 16,0.997030139 L16,7.00296986 C16,7.5536144 15.5469637,8 15.0029699,8 L8.99703014,8 C8.4463856,8 8,7.54696369 8,7.00296986 L8,0.997030139 Z M10,2 L14,2 L14,6 L10,6 L10,2 Z" id="block" fill="#3B3E40"></path>
                </g>
            </g>
        </g>
    </g>
</svg>