<?xml version="1.0" encoding="UTF-8" standalone="no"?>
<svg width="48px" height="48px" viewBox="0 0 48 48" version="1.1" xmlns="http://www.w3.org/2000/svg" xmlns:xlink="http://www.w3.org/1999/xlink">
    <!-- Generator: sketchtool 3.7.2 (28276) - http://www.bohemiancoding.com/sketch -->
    <title>807507C0-C4C3-4580-BD98-A86A588BB19E</title>
    <desc>Created with sketchtool.</desc>
    <defs></defs>
    <g id="Math-Input" stroke="none" stroke-width="1" fill="none" fill-rule="evenodd">
        <g id="[Assets]-Math-Input" transform="translate(-1272.000000, -698.000000)">
            <g id="math_keypad_icon_radical" transform="translate(1272.000000, 698.000000)">
                <g id="icon">
                    <rect id="bounds" fill-opacity="0" fill="#FF0088" x="0" y="0" width="48" height="48"></rect>
                    <path d="M13,16.9970301 C13,16.4463856 13.4530363,16 13.9970301,16 L20.0029699,16 C20.5536144,16 21,16.4530363 21,16.9970301 L21,23.0029699 C21,23.5536144 20.5469637,24 20.0029699,24 L13.9970301,24 C13.4463856,24 13,23.5469637 13,23.0029699 L13,16.9970301 Z M15,18 L19,18 L19,22 L15,22 L15,18 Z" id="block" fill="#3B3E40"></path>
                    <polyline id="root" stroke="#3B3E40" stroke-width="2" stroke-linecap="round" stroke-linejoin="round" points="14 29 18 35 27 21 34 21"></polyline>
                </g>
            </g>
        </g>
    </g>
</svg>